<svg width="1280" height="257" viewBox="0 0 1280 257" fill="none" xmlns="http://www.w3.org/2000/svg">
<path opacity="0.5" fill-rule="evenodd" clip-rule="evenodd" d="M-96 155.787L-29.625 131.815C36.75 107.844 169.5 59.9005 302.25 71.8863C435 83.8721 567.75 155.787 700.5 203.73C833.25 251.673 966 275.645 1098.75 239.687C1231.5 203.73 1364.25 107.844 1430.62 59.9005L1497 11.9574V-24H1430.62C1364.25 -24 1231.5 -24 1098.75 -24C966 -24 833.25 -24 700.5 -24C567.75 -24 435 -24 302.25 -24C169.5 -24 36.75 -24 -29.625 -24H-96V155.787Z" fill="#5EE7FF" fill-opacity="0.1"/>
</svg>
