<svg width="44" height="44" viewBox="0 0 44 44" fill="none" xmlns="http://www.w3.org/2000/svg">
<path d="M16.5 11C16.5 13.5942 16.5 14.8903 15.6933 15.6933C14.8885 16.5 13.5942 16.5 11 16.5C8.40583 16.5 7.10967 16.5 6.30667 15.6933C5.5 14.8885 5.5 13.5942 5.5 11C5.5 8.40583 5.5 7.10967 6.30667 6.30667C7.1115 5.5 8.40583 5.5 11 5.5C13.5942 5.5 14.8903 5.5 15.6933 6.30667C16.5 7.1115 16.5 8.40583 16.5 11ZM16.5 11H22M33 16.5C30.4058 16.5 29.1097 16.5 28.3067 15.6933C27.5 14.8885 27.5 13.5942 27.5 11C27.5 8.40583 27.5 7.10967 28.3067 6.30667C29.1115 5.5 30.4058 5.5 33 5.5C35.5942 5.5 36.8903 5.5 37.6933 6.30667C38.5 7.1115 38.5 8.40583 38.5 11C38.5 13.5942 38.5 14.8903 37.6933 15.6933C36.8885 16.5 35.5942 16.5 33 16.5ZM33 16.5V22M27.5 33C27.5 30.4058 27.5 29.1097 28.3067 28.3067C29.1115 27.5 30.4058 27.5 33 27.5C35.5942 27.5 36.8903 27.5 37.6933 28.3067C38.5 29.1115 38.5 30.4077 38.5 33C38.5 35.5923 38.5 36.8885 37.6933 37.6933C36.8885 38.5 35.5923 38.5 33 38.5C30.4077 38.5 29.1115 38.5 28.3067 37.6933C27.5 36.8885 27.5 35.5942 27.5 33ZM27.5 33H22M11 27.5C13.5942 27.5 14.8903 27.5 15.6933 28.3067C16.5 29.1115 16.5 30.4058 16.5 33C16.5 35.5942 16.5 36.8903 15.6933 37.6933C14.8885 38.5 13.5942 38.5 11 38.5C8.40583 38.5 7.10967 38.5 6.30667 37.6933C5.5 36.8885 5.5 35.5942 5.5 33C5.5 30.4058 5.5 29.1097 6.30667 28.3067C7.1115 27.5 8.40583 27.5 11 27.5ZM11 27.5V22" stroke="#001627" stroke-linecap="round" stroke-linejoin="round"/>
</svg>
