<svg width="20" height="20" viewBox="0 0 20 20" fill="none" xmlns="http://www.w3.org/2000/svg">
<path d="M3.33268 17.5H11.3493C11.8302 17.4999 12.3054 17.3959 12.7422 17.1949C13.1791 16.994 13.5673 16.7009 13.8802 16.3358L18.1318 11.3758C18.2209 11.2721 18.283 11.1481 18.3129 11.0148C18.3427 10.8814 18.3393 10.7427 18.3029 10.611C18.2665 10.4793 18.1982 10.3585 18.1042 10.2594C18.0101 10.1602 17.8931 10.0857 17.7635 10.0425L16.1235 9.4958C15.7272 9.36674 15.3051 9.33747 14.8947 9.41059C14.4844 9.48371 14.0984 9.65695 13.771 9.91497L11.1168 12.0375L10.6027 11.0083C10.3272 10.4535 9.90193 9.98698 9.37496 9.66149C8.84799 9.336 8.2404 9.16457 7.62101 9.16663H3.33268C2.41352 9.16663 1.66602 9.91413 1.66602 10.8333V15.8333C1.66602 16.7525 2.41352 17.5 3.33268 17.5ZM3.33268 10.8333H7.62101C8.25685 10.8333 8.82768 11.1858 9.11185 11.7541L9.48435 12.5H5.83268V14.1666H10.8443C10.9725 14.1648 11.0986 14.1334 11.2127 14.075L11.2152 14.0741L11.2185 14.0725H11.221L11.2227 14.0716H11.226L11.2268 14.0708C11.2343 14.0733 11.2293 14.07 11.2293 14.07C11.2377 14.07 11.231 14.0691 11.231 14.0691H11.2318L11.2335 14.0683L11.236 14.0675L11.2377 14.0666L11.2393 14.0658L11.2418 14.065L11.2435 14.0641C11.246 14.0641 11.2443 14.0633 11.2452 14.0633L11.2477 14.0616L11.2493 14.0608L11.251 14.06L11.2535 14.0591L11.2552 14.0583H11.256L11.2577 14.0575L11.2602 14.0566L11.2618 14.0558C11.2693 14.055 11.2643 14.055 11.2643 14.055L11.266 14.0541C11.298 14.0346 11.3286 14.0128 11.3577 13.9891L14.8127 11.225C15.031 11.0516 15.3318 10.9975 15.596 11.0858L16.0602 11.2408L12.616 15.26C12.4576 15.4398 12.2627 15.5839 12.0443 15.6828C11.8259 15.7816 11.589 15.8329 11.3493 15.8333H3.33268V10.8333ZM13.3327 1.66663H13.3185C13.1827 1.6683 12.4802 1.69913 11.666 2.25413C10.8735 1.71413 10.1877 1.6708 10.026 1.66747L10.001 1.66663H9.99768C9.33018 1.66663 8.70185 1.92747 8.23185 2.3983C7.76018 2.8708 7.49935 3.4983 7.49935 4.16663C7.49935 4.83497 7.76018 5.46247 8.21685 5.91997L11.0618 8.9083C11.1401 8.98956 11.234 9.05418 11.3378 9.09829C11.4417 9.1424 11.5534 9.1651 11.6662 9.16502C11.779 9.16495 11.8907 9.14209 11.9945 9.09784C12.0982 9.05358 12.192 8.98883 12.2702 8.90747L15.1002 5.93413C15.5727 5.46247 15.8327 4.83497 15.8327 4.16663C15.8327 3.4983 15.5718 2.8708 15.101 2.39913C14.8696 2.16633 14.5943 1.98172 14.291 1.85599C13.9878 1.73026 13.6626 1.6659 13.3343 1.66663H13.3327ZM14.166 4.16663C14.166 4.38913 14.0793 4.5983 13.9068 4.7708L11.666 7.12497L9.41018 4.7558C9.25268 4.5983 9.16601 4.38913 9.16601 4.16663C9.16601 3.94413 9.25268 3.73497 9.41101 3.57663C9.56186 3.42357 9.76696 3.33614 9.98185 3.3333C10.0027 3.33413 10.4002 3.35997 10.871 3.73747C10.9382 3.79191 11.0068 3.85358 11.0768 3.92247L11.666 4.51163L12.2552 3.92247C12.3252 3.85358 12.3938 3.79191 12.461 3.73747C12.9018 3.3833 13.2743 3.33913 13.3377 3.33413C13.5568 3.33528 13.7667 3.4227 13.9218 3.57747C14.0793 3.73497 14.166 3.94413 14.166 4.16663Z" fill="#E1FFFF"/>
</svg>
