<svg width="48" height="48" viewBox="0 0 48 48" fill="none" xmlns="http://www.w3.org/2000/svg">
<path d="M24 30C24.1467 30 24.2913 30.008 24.434 30.024L32.256 21.33C32.4337 21.1327 32.6825 21.014 32.9477 21.0002C33.2129 20.9863 33.4727 21.0783 33.67 21.256C33.8673 21.4337 33.986 21.6825 33.9998 21.9477C34.0137 22.2129 33.9217 22.4727 33.744 22.67L26.416 30.81C26.9085 31.1832 27.3078 31.6655 27.5826 32.219C27.8575 32.7724 28.0003 33.3821 28 34H20C20 32.9391 20.4214 31.9217 21.1716 31.1716C21.9217 30.4214 22.9391 30 24 30ZM10 31C9.73478 31 9.48043 31.1054 9.29289 31.2929C9.10536 31.4804 9 31.7348 9 32C9 32.2652 9.10536 32.5196 9.29289 32.7071C9.48043 32.8946 9.73478 33 10 33H13C13.2652 33 13.5196 32.8946 13.7071 32.7071C13.8946 32.5196 14 32.2652 14 32C14 31.7348 13.8946 31.4804 13.7071 31.2929C13.5196 31.1054 13.2652 31 13 31H10ZM39 32C39 31.7348 38.8946 31.4804 38.7071 31.2929C38.5196 31.1054 38.2652 31 38 31H35C34.7348 31 34.4804 31.1054 34.2929 31.2929C34.1054 31.4804 34 31.7348 34 32C34 32.2652 34.1054 32.5196 34.2929 32.7071C34.4804 32.8946 34.7348 33 35 33H38C38.2652 33 38.5196 32.8946 38.7071 32.7071C38.8946 32.5196 39 32.2652 39 32ZM36 26C36.5304 26 37.0391 25.7893 37.4142 25.4142C37.7893 25.0391 38 24.5304 38 24C38 23.4696 37.7893 22.9609 37.4142 22.5858C37.0391 22.2107 36.5304 22 36 22C35.4696 22 34.9609 22.2107 34.5858 22.5858C34.2107 22.9609 34 23.4696 34 24C34 24.5304 34.2107 25.0391 34.5858 25.4142C34.9609 25.7893 35.4696 26 36 26ZM14 24C14 24.5304 13.7893 25.0391 13.4142 25.4142C13.0391 25.7893 12.5304 26 12 26C11.4696 26 10.9609 25.7893 10.5858 25.4142C10.2107 25.0391 10 24.5304 10 24C10 23.4696 10.2107 22.9609 10.5858 22.5858C10.9609 22.2107 11.4696 22 12 22C12.5304 22 13.0391 22.2107 13.4142 22.5858C13.7893 22.9609 14 23.4696 14 24ZM16 19C16.5304 19 17.0391 18.7893 17.4142 18.4142C17.7893 18.0391 18 17.5304 18 17C18 16.4696 17.7893 15.9609 17.4142 15.5858C17.0391 15.2107 16.5304 15 16 15C15.4696 15 14.9609 15.2107 14.5858 15.5858C14.2107 15.9609 14 16.4696 14 17C14 17.5304 14.2107 18.0391 14.5858 18.4142C14.9609 18.7893 15.4696 19 16 19ZM34 17C34 17.5304 33.7893 18.0391 33.4142 18.4142C33.0391 18.7893 32.5304 19 32 19C31.4696 19 30.9609 18.7893 30.5858 18.4142C30.2107 18.0391 30 17.5304 30 17C30 16.4696 30.2107 15.9609 30.5858 15.5858C30.9609 15.2107 31.4696 15 32 15C32.5304 15 33.0391 15.2107 33.4142 15.5858C33.7893 15.9609 34 16.4696 34 17ZM25 12C25 11.7348 24.8946 11.4804 24.7071 11.2929C24.5196 11.1054 24.2652 11 24 11C23.7348 11 23.4804 11.1054 23.2929 11.2929C23.1054 11.4804 23 11.7348 23 12V15C23 15.2652 23.1054 15.5196 23.2929 15.7071C23.4804 15.8946 23.7348 16 24 16C24.2652 16 24.5196 15.8946 24.7071 15.7071C24.8946 15.5196 25 15.2652 25 15V12Z" fill="#0350B5"/>
<path d="M24 7C12.402 7 3 16.402 3 28C3 30.928 3.6 33.718 4.684 36.252L4.692 36.27C5.116 37.264 5.384 37.89 6.232 38.792C6.562 39.144 7.036 39.512 7.496 39.814C7.956 40.116 8.482 40.41 8.934 40.574C10.098 41 11.102 41 12.676 41H35.324C36.898 41 37.904 41 39.066 40.576C39.518 40.41 40.042 40.118 40.502 39.816C40.962 39.51 41.438 39.144 41.768 38.792C42.616 37.892 42.884 37.264 43.308 36.27L43.316 36.252C44.4 33.718 45 30.928 45 28C45 16.402 35.598 7 24 7ZM5 28C5 22.9609 7.00178 18.1282 10.565 14.565C14.1282 11.0018 18.9609 9 24 9C29.0391 9 33.8718 11.0018 37.435 14.565C40.9982 18.1282 43 22.9609 43 28C43.002 30.5659 42.4843 33.1056 41.478 35.466C41.066 36.428 40.91 36.786 40.31 37.424C40.13 37.614 39.798 37.884 39.402 38.144C39.0828 38.3641 38.7408 38.5492 38.382 38.696C37.582 38.988 36.926 39 35.206 39H12.794C11.074 39 10.42 38.988 9.62 38.696C9.26189 38.5484 8.92007 38.3641 8.6 38.146C8.27246 37.9375 7.96748 37.6956 7.69 37.424C7.09 36.784 6.934 36.428 6.522 35.464C5.516 33.1043 4.99827 30.5652 5 28Z" fill="#0350B5"/>
</svg>
