<svg width="24" height="24" viewBox="0 0 24 24" fill="none" xmlns="http://www.w3.org/2000/svg">
<path d="M18.0612 6.32093C16.8455 6.14704 15.6265 5.99663 14.4049 5.86976C11.8524 5.60149 9.97181 5.4898 8.69174 5.44726C7.41024 5.40407 6.33646 6.2736 6.11227 7.53608C5.88724 8.79696 5.60593 10.6603 5.33771 13.2122C5.1874 14.6423 5.08641 15.8615 5.01881 16.8825C4.22395 16.7678 3.55324 16.6581 2.999 16.5596C1.73657 16.3349 0.867048 15.2611 0.910186 13.9801C0.953324 12.6991 1.06447 10.8189 1.33274 8.26648C1.60101 5.71404 1.88276 3.85129 2.1073 2.59035C2.33149 1.32787 3.40526 0.458346 4.68677 0.501536C5.96689 0.543575 7.84796 0.655816 10.3999 0.924036C12.9523 1.19231 14.8151 1.47406 16.076 1.6986C17.3385 1.92279 18.208 2.99656 18.1649 4.27807C18.1459 4.84067 18.1143 5.51959 18.0612 6.32093Z" fill="white"/>
<path d="M2.1073 2.59035C2.33149 1.32787 3.40526 0.458346 4.68677 0.501536C5.96689 0.543575 7.84796 0.655816 10.3999 0.924036C12.9523 1.19231 14.8151 1.47406 16.076 1.6986C17.3385 1.92279 18.208 2.99656 18.1648 4.27807C18.1223 5.55813 18.0106 7.43926 17.7423 9.9912C17.4741 12.5431 17.1923 14.4064 16.9677 15.6678C16.7436 16.9298 15.6699 17.7988 14.3883 17.7561C13.1083 17.7136 11.2271 17.6019 8.67518 17.3336C6.12274 17.0654 4.25999 16.7836 2.99905 16.5591C1.73657 16.3349 0.867048 15.2611 0.910238 13.9796C0.952225 12.7 1.06447 10.8189 1.33274 8.26648C1.60101 5.71404 1.88276 3.85129 2.1073 2.59035Z" stroke="#0350B5" stroke-linecap="round" stroke-linejoin="round"/>
<path d="M20.9736 20.6136C20.7495 21.8756 19.6757 22.7446 18.3942 22.7019C17.1141 22.6593 15.233 22.5476 12.681 22.2794C10.1286 22.0111 8.26585 21.7294 7.00491 21.5048C5.74243 21.2806 4.87291 20.2069 4.9161 18.9254C4.95808 17.6457 5.07033 15.7647 5.3386 13.2122C5.60687 10.6598 5.88862 8.79703 6.11316 7.53609C6.33735 6.27361 7.41112 5.40409 8.69263 5.44728C9.97275 5.48932 11.8538 5.60156 14.4058 5.86978C16.9577 6.138 18.821 6.4198 20.0819 6.64434C21.3444 6.86853 22.2139 7.9423 22.1707 9.22381C22.1282 10.5039 22.0164 12.385 21.7482 14.9369C21.48 17.4889 21.1982 19.3521 20.9736 20.6136Z" fill="#E1FFFF"/>
<path d="M18.0622 6.32092C17.9951 7.342 17.8936 8.56107 17.7433 9.99119C17.475 12.5436 17.1933 14.4064 16.9687 15.6678C16.7446 16.9298 15.6708 17.7988 14.3893 17.7561C13.1092 17.7136 11.2281 17.6019 8.67615 17.3336C7.24602 17.1833 6.03255 17.0286 5.01978 16.8825C5.10246 15.6571 5.20878 14.4335 5.33867 13.2122C5.60694 10.6598 5.8887 8.79701 6.11323 7.53607C6.33742 6.27359 7.4112 5.40406 8.6927 5.44725C9.97282 5.48929 11.8539 5.60153 14.4058 5.86975C15.836 6.02006 17.0494 6.17476 18.0622 6.32092Z" fill="#E1FFFF"/>
<path d="M4.94526 19.4554C5.11396 20.4908 5.90179 21.3086 6.97911 21.5007C8.24049 21.7258 10.1111 22.0094 12.679 22.2793C15.2319 22.5476 17.1125 22.6593 18.3926 22.7019C19.6736 22.745 20.7479 21.8755 20.9721 20.613C21.1966 19.3521 21.4784 17.4889 21.7466 14.9369C22.0166 12.3686 22.128 10.4804 22.1701 9.19975C22.2062 8.10603 21.5695 7.16483 20.5924 6.78511" stroke="#0350B5" stroke-linecap="round" stroke-linejoin="round"/>
<path d="M3.08509 1.16073L15.99 17.097M9.15675 0.793375L17.6117 11.2344M9.91834 17.4643L1.4634 7.02333M18.0612 6.32093C17.9941 7.34201 17.8927 8.56108 17.7423 9.9912C17.4741 12.5436 17.1923 14.4064 16.9677 15.6678C16.7436 16.9298 15.6699 17.7988 14.3883 17.7561C13.1083 17.7136 11.2271 17.6019 8.67518 17.3336C7.24506 17.1833 6.03158 17.0286 5.01881 16.8825C5.1015 15.6571 5.20782 14.4335 5.33771 13.2122C5.60598 10.6598 5.88774 8.79702 6.11227 7.53608C6.33646 6.2736 7.41023 5.40407 8.69174 5.44726C9.97186 5.4893 11.8529 5.60154 14.4049 5.86976C15.835 6.02007 17.0485 6.17477 18.0612 6.32093Z" stroke="#0350B5" stroke-linecap="round" stroke-linejoin="round"/>
</svg>
