<svg width="17" height="16" viewBox="0 0 17 16" fill="none" xmlns="http://www.w3.org/2000/svg">
<path d="M1.66667 15.8333H9.68333C10.1642 15.8333 10.6393 15.7293 11.0762 15.5283C11.513 15.3274 11.9012 15.0343 12.2142 14.6692L16.4658 9.70917C16.5549 9.60549 16.617 9.48151 16.6468 9.34814C16.6767 9.21477 16.6732 9.07612 16.6368 8.94439C16.6005 8.81266 16.5322 8.6919 16.4382 8.59276C16.3441 8.49361 16.2271 8.41912 16.0975 8.37584L14.4575 7.82917C14.0612 7.70011 13.6391 7.67084 13.2287 7.74396C12.8184 7.81708 12.4324 7.99033 12.105 8.24834L9.45083 10.3708L8.93667 9.34167C8.66121 8.7869 8.23591 8.32035 7.70894 7.99486C7.18197 7.66937 6.57438 7.49795 5.955 7.50001H1.66667C0.7475 7.50001 0 8.24751 0 9.16667V14.1667C0 15.0858 0.7475 15.8333 1.66667 15.8333ZM1.66667 9.16667H5.955C6.59083 9.16667 7.16167 9.51917 7.44583 10.0875L7.81833 10.8333H4.16667V12.5H9.17833C9.30653 12.4982 9.43257 12.4668 9.54667 12.4083L9.54916 12.4075L9.5525 12.4058H9.555L9.55667 12.405H9.56L9.56083 12.4042C9.56833 12.4067 9.56333 12.4033 9.56333 12.4033C9.57166 12.4033 9.565 12.4025 9.565 12.4025H9.56583L9.5675 12.4017L9.57 12.4008L9.57166 12.4L9.57333 12.3992L9.57583 12.3983L9.5775 12.3975C9.58 12.3975 9.57833 12.3967 9.57916 12.3967L9.58167 12.395L9.58333 12.3942L9.585 12.3933L9.5875 12.3925L9.58916 12.3917H9.59L9.59167 12.3908L9.59416 12.39L9.59583 12.3892C9.60333 12.3883 9.59833 12.3883 9.59833 12.3883L9.6 12.3875C9.63198 12.3679 9.66261 12.3462 9.69166 12.3225L13.1467 9.55834C13.365 9.38501 13.6658 9.33084 13.93 9.41917L14.3942 9.57417L10.95 13.5933C10.7915 13.7732 10.5967 13.9173 10.3783 14.0162C10.1599 14.115 9.92303 14.1663 9.68333 14.1667H1.66667V9.16667ZM11.6667 6.19174e-06H11.6525C11.5167 0.00167286 10.8142 0.0325061 10 0.587506C9.2075 0.0475061 8.52166 0.0041728 8.36 0.000839465L8.335 6.19174e-06H8.33167C7.66417 6.19174e-06 7.03583 0.26084 6.56583 0.731673C6.09417 1.20417 5.83333 1.83167 5.83333 2.50001C5.83333 3.16834 6.09417 3.79584 6.55083 4.25334L9.39583 7.24167C9.47411 7.32293 9.56798 7.38755 9.67182 7.43166C9.77567 7.47578 9.88735 7.49848 10.0002 7.4984C10.113 7.49832 10.2247 7.47547 10.3284 7.43121C10.4322 7.38696 10.526 7.32221 10.6042 7.24084L13.4342 4.26751C13.9067 3.79584 14.1667 3.16834 14.1667 2.50001C14.1667 1.83167 13.9058 1.20417 13.435 0.732506C13.2036 0.499702 12.9282 0.315095 12.625 0.189364C12.3218 0.0636334 11.9966 -0.000726836 11.6683 6.19174e-06H11.6667ZM12.5 2.50001C12.5 2.72251 12.4133 2.93167 12.2408 3.10417L10 5.45834L7.74417 3.08917C7.58667 2.93167 7.5 2.72251 7.5 2.50001C7.5 2.27751 7.58667 2.06834 7.745 1.91001C7.89585 1.75695 8.10095 1.66952 8.31583 1.66667C8.33667 1.66751 8.73417 1.69334 9.205 2.07084C9.27222 2.12528 9.34083 2.18695 9.41083 2.25584L10 2.84501L10.5892 2.25584C10.6592 2.18695 10.7278 2.12528 10.795 2.07084C11.2358 1.71667 11.6083 1.67251 11.6717 1.66751C11.8908 1.66865 12.1007 1.75607 12.2558 1.91084C12.4133 2.06834 12.5 2.27751 12.5 2.50001Z" fill="#0350B5"/>
</svg>
