<svg width="1440" height="409" viewBox="0 0 1440 409" fill="none" xmlns="http://www.w3.org/2000/svg">
<g opacity="0.4" clip-path="url(#clip0_179_141)">
<path fill-rule="evenodd" clip-rule="evenodd" d="M0 149.213L93.3333 173.185C186.667 197.156 373.333 245.1 560 233.114C746.667 221.128 933.333 149.213 1120 101.27C1306.67 53.327 1493.33 29.3555 1680 65.3128C1866.67 101.27 2053.33 197.156 2146.67 245.1L2240 293.043V329H2146.67C2053.33 329 1866.67 329 1680 329C1493.33 329 1306.67 329 1120 329C933.333 329 746.667 329 560 329C373.333 329 186.667 329 93.3333 329H0V149.213Z" fill="#00BBFF" fill-opacity="0.1"/>
<path fill-rule="evenodd" clip-rule="evenodd" d="M0 189.213L93.3333 213.185C186.667 237.156 373.333 285.1 560 273.114C746.667 261.128 933.333 189.213 1120 141.27C1306.67 93.327 1493.33 69.3555 1680 105.313C1866.67 141.27 2053.33 237.156 2146.67 285.1L2240 333.043V369H2146.67C2053.33 369 1866.67 369 1680 369C1493.33 369 1306.67 369 1120 369C933.333 369 746.667 369 560 369C373.333 369 186.667 369 93.3333 369H0V189.213Z" fill="#00BBFF" fill-opacity="0.1"/>
<path fill-rule="evenodd" clip-rule="evenodd" d="M-448 229.213L-354.667 253.185C-261.333 277.156 -74.6667 325.1 112 313.114C298.667 301.128 485.333 229.213 672 181.27C858.667 133.327 1045.33 109.355 1232 145.313C1418.67 181.27 1605.33 277.156 1698.67 325.1L1792 373.043V409H1698.67C1605.33 409 1418.67 409 1232 409C1045.33 409 858.667 409 672 409C485.333 409 298.667 409 112 409C-74.6667 409 -261.333 409 -354.667 409H-448V229.213Z" fill="#00BBFF" fill-opacity="0.1"/>
<path fill-rule="evenodd" clip-rule="evenodd" d="M-736 141.213L-642.667 165.185C-549.333 189.156 -362.667 237.1 -176 225.114C10.6667 213.128 197.333 141.213 384 93.2701C570.667 45.327 757.333 21.3555 944 57.3128C1130.67 93.2701 1317.33 189.156 1410.67 237.1L1504 285.043V321H1410.67C1317.33 321 1130.67 321 944 321C757.333 321 570.667 321 384 321C197.333 321 10.6667 321 -176 321C-362.667 321 -549.333 321 -642.667 321H-736V141.213Z" fill="#00BBFF" fill-opacity="0.1"/>
</g>
<defs>
<clipPath id="clip0_179_141">
<rect width="1440" height="409" fill="white"/>
</clipPath>
</defs>
</svg>
