<svg width="23" height="22" viewBox="0 0 23 22" fill="none" xmlns="http://www.w3.org/2000/svg">
<path d="M6.81484 5.54865C9.55745 5.87048 11.9112 5.01971 12.0721 3.64841C12.233 2.27711 10.1402 0.904553 7.39757 0.582724C4.65496 0.260894 2.30119 1.11166 2.14028 2.48296C1.97936 3.85427 4.07224 5.22682 6.81484 5.54865Z" stroke="#0350B5" stroke-linecap="round" stroke-linejoin="round"/>
<path d="M2.14062 2.48291C2.14062 2.48291 1.89363 4.58777 1.73272 5.95906C1.5718 7.33035 3.66468 8.70292 6.40728 9.02475C9.14987 9.34657 11.5037 8.4958 11.6646 7.12451C11.7599 6.31228 12.0725 3.64836 12.0725 3.64836" stroke="#0350B5" stroke-linecap="round" stroke-linejoin="round"/>
<path d="M1.73242 5.95923C1.73242 5.95923 1.48543 8.06409 1.32452 9.43538C1.1636 10.8067 3.25647 12.1792 5.99908 12.5011C8.74166 12.8229 11.0955 11.9721 11.2564 10.6008C11.3517 9.7886 11.6643 7.12468 11.6643 7.12468" stroke="#0350B5" stroke-linecap="round" stroke-linejoin="round"/>
<path d="M1.32422 9.4353C1.32422 9.4353 1.07723 11.5402 0.916312 12.9115C0.755399 14.2827 2.84827 15.6553 5.59088 15.9771C8.33346 16.299 10.6873 15.4482 10.8482 14.0769C10.9435 13.2647 11.2561 10.6008 11.2561 10.6008" stroke="#0350B5" stroke-linecap="round" stroke-linejoin="round"/>
<path d="M0.916016 12.9114C0.916016 12.9114 0.669022 15.0162 0.508109 16.3875C0.347196 17.7588 2.44007 19.1314 5.18267 19.4532C7.92526 19.775 10.2791 18.9243 10.44 17.553C10.5353 16.7407 10.8479 14.0768 10.8479 14.0768" stroke="#0350B5" stroke-linecap="round" stroke-linejoin="round"/>
<path d="M15.9301 13.6663C18.6727 13.9882 21.0265 13.1374 21.1874 11.7661C21.3483 10.3948 19.2554 9.02223 16.5128 8.7004C13.7702 8.37857 11.4164 9.22934 11.2555 10.6006C11.0946 11.9719 13.1875 13.3445 15.9301 13.6663Z" stroke="#0350B5" stroke-linecap="round" stroke-linejoin="round"/>
<path d="M11.2559 10.6008C11.2559 10.6008 11.0089 12.7057 10.848 14.077C10.687 15.4483 12.7799 16.8208 15.5225 17.1427C18.2651 17.4645 20.6189 16.6137 20.7798 15.2424C20.8751 14.4302 21.1877 11.7663 21.1877 11.7663" stroke="#0350B5" stroke-linecap="round" stroke-linejoin="round"/>
<path d="M10.8477 14.0769C10.8477 14.0769 10.6007 16.1818 10.4397 17.5531C10.2788 18.9243 12.3717 20.2969 15.1143 20.6187C17.8569 20.9406 20.2107 20.0898 20.3716 18.7185C20.4669 17.9063 20.7795 15.2424 20.7795 15.2424" stroke="#0350B5" stroke-linecap="round" stroke-linejoin="round"/>
</svg>
