<svg width="159" height="34" viewBox="0 0 159 34" fill="none" xmlns="http://www.w3.org/2000/svg">
<path d="M8.90625 16.2812C11.2083 18.0521 12.4948 19.0729 12.7656 19.3438L13.3281 19.9219C13.651 20.224 13.9219 20.375 14.1406 20.375C14.3594 20.375 14.5521 20.3229 14.7188 20.2188C14.8854 20.1042 15.0833 19.9271 15.3125 19.6875C15.5521 19.4375 15.8177 19.1927 16.1094 18.9531L19.5938 16.2656L15.3281 7.0625C15.0469 6.44792 14.8229 5.98438 14.6562 5.67188C14.5 5.35938 14.3542 5.20312 14.2188 5.20312C14.0938 5.20312 13.9635 5.31771 13.8281 5.54688C13.7031 5.76562 13.5365 6.10938 13.3281 6.57812L8.90625 16.2812ZM3.53125 25.7031L1.21875 25.8281C0.40625 25.8281 0 25.5 0 24.8438C0 24.4167 0.338542 23.9427 1.01562 23.4219C2.22396 22.4635 3.34896 20.974 4.39062 18.9531L9.82812 8.01562L11.7656 3.90625C12.224 2.89583 12.6146 2.19792 12.9375 1.8125C13.2708 1.41667 13.6927 1.21875 14.2031 1.21875C14.7135 1.21875 15.1406 1.39062 15.4844 1.73438C15.8385 2.07812 16.2604 2.77604 16.75 3.82812L20.1719 11.1406C23.099 16.9531 24.6562 20.0312 24.8438 20.375L25.4219 21.4219C25.8802 22.224 26.1979 22.7083 26.375 22.875C26.5521 23.0417 26.7344 23.1823 26.9219 23.2969C27.7448 23.7865 28.1562 24.224 28.1562 24.6094C28.1562 25.4219 27.75 25.8281 26.9375 25.8281L24.5781 25.7188L21.4062 25.8281C20.875 25.8281 20.4583 25.724 20.1562 25.5156C19.8542 25.3073 19.7031 24.9948 19.7031 24.5781C19.7031 23.724 20.651 23.2969 22.5469 23.2969C22.6615 23.2969 22.776 23.2969 22.8906 23.2969C23.0052 23.2969 23.1198 23.2917 23.2344 23.2812C22.9531 22.875 22.6615 22.3594 22.3594 21.7344L20.7656 18.4844L17.8281 20.7656C16.8698 21.5052 16.1562 22.1615 15.6875 22.7344C15.2188 23.2969 14.7917 23.5781 14.4062 23.5781C14.0208 23.5781 13.7135 23.4844 13.4844 23.2969C13.2656 23.1094 13.0677 22.9115 12.8906 22.7031L12.2344 21.9531C12.0469 21.7344 11.7969 21.5 11.4844 21.25L9.07812 19.4531C8.58854 19.099 8.08854 18.7188 7.57812 18.3125L5.28125 23.375H5.75C6.77083 23.375 7.51042 23.4688 7.96875 23.6562C8.42708 23.8333 8.65625 24.1771 8.65625 24.6875C8.65625 25.4583 8.125 25.8438 7.0625 25.8438L3.53125 25.7031ZM40.3393 13.2188C39.3601 12.4896 38.1361 12.125 36.6674 12.125C35.209 12.125 33.9486 12.6823 32.8861 13.7969C31.834 14.9115 31.308 16.2083 31.308 17.6875C31.308 19.5938 31.7715 21.0573 32.6986 22.0781C33.6257 23.0885 34.8653 23.5938 36.4174 23.5938C37.9695 23.5938 39.2611 22.9896 40.2924 21.7812V14.3125C40.2924 13.9271 40.308 13.5625 40.3393 13.2188ZM40.2924 24.5C39.157 25.5417 37.7768 26.0625 36.1518 26.0625C34.0163 26.0625 32.2195 25.3438 30.7611 23.9062C29.3028 22.4583 28.5736 20.5208 28.5736 18.0938C28.5736 15.6562 29.3705 13.6406 30.9643 12.0469C32.558 10.4531 34.5632 9.65625 36.9799 9.65625C38.1257 9.65625 39.1882 9.90104 40.1674 10.3906C40.4799 10.5573 40.7559 10.7448 40.9955 10.9531C41.4851 10.0885 42.209 9.65625 43.1674 9.65625C44.1257 9.65625 44.6049 10.1094 44.6049 11.0156C44.6049 11.4531 44.3913 11.8125 43.9643 12.0938C43.5476 12.375 43.282 12.7552 43.1674 13.2344C43.0528 13.7135 42.9955 14.6615 42.9955 16.0781V30.2188C42.9955 30.8438 43.1309 31.1562 43.4018 31.1562C43.5476 31.1562 43.7507 31.1198 44.0111 31.0469C44.2715 30.9844 44.5632 30.9531 44.8861 30.9531C45.2195 30.9531 45.5111 31.0625 45.7611 31.2812C46.0215 31.5 46.1518 31.7969 46.1518 32.1719C46.1518 32.9635 45.5893 33.4115 44.4643 33.5156C43.7872 33.5781 43.2247 33.6719 42.7768 33.7969C42.3393 33.9323 41.9122 34 41.4955 34C40.6934 34 40.2924 33.4948 40.2924 32.4844V24.5ZM58.8035 22.8906C57.7723 25.0052 56.0431 26.0625 53.616 26.0625C52.8243 26.0625 52.09 25.9219 51.4129 25.6406C49.5275 24.849 48.5848 23.1146 48.5848 20.4375V13.4219C48.5848 12.8177 48.4493 12.5156 48.1785 12.5156L47.0223 12.7031C46.0952 12.7031 45.6316 12.276 45.6316 11.4219C45.6316 10.6615 46.1316 10.2344 47.1316 10.1406C47.7254 10.0885 48.1889 10.0156 48.5223 9.92188L49.3191 9.73438C49.517 9.68229 49.7983 9.65625 50.1629 9.65625C50.5275 9.65625 50.8087 9.79688 51.0066 10.0781C51.2045 10.3594 51.3035 10.7188 51.3035 11.1562V19.4219C51.3035 21.5156 51.8295 22.8073 52.8816 23.2969C53.267 23.474 53.7202 23.5625 54.241 23.5625C55.2202 23.5625 56.1316 23.0833 56.9754 22.125C57.8191 21.1667 58.4129 19.9948 58.7566 18.6094V13.4219C58.7566 13.026 58.7202 12.776 58.6473 12.6719C58.5743 12.5677 58.4702 12.5156 58.3348 12.5156L57.241 12.7031C56.3139 12.7031 55.8504 12.276 55.8504 11.4219C55.8504 10.6615 56.3608 10.2344 57.3816 10.1406C57.9233 10.0885 58.366 10.0208 58.7098 9.9375L59.491 9.73438C59.6785 9.68229 59.9545 9.65625 60.3191 9.65625C60.6941 9.65625 60.9754 9.79688 61.1629 10.0781C61.3608 10.3594 61.4598 10.7188 61.4598 11.1562V19.6562C61.4598 21.6146 61.6993 22.8177 62.1785 23.2656C62.3243 23.401 62.517 23.5156 62.7566 23.6094C63.1733 23.776 63.3816 24.1042 63.3816 24.5938C63.3816 25.5729 62.7983 26.0625 61.6316 26.0625C60.4754 26.0625 59.6525 25.4844 59.1629 24.3281C58.9858 23.9219 58.866 23.4427 58.8035 22.8906ZM77.1271 19.3281C75.4396 19.0052 73.9396 18.8438 72.6271 18.8438C71.325 18.8438 70.3615 19.1042 69.7365 19.625C69.1219 20.1354 68.8146 20.7188 68.8146 21.375C68.8146 22.0312 69.1011 22.5729 69.674 23C70.2469 23.4167 71.049 23.625 72.0802 23.625C74.1948 23.625 75.8771 22.9427 77.1271 21.5781V19.3281ZM77.4865 24C76.3407 25.375 74.4396 26.0625 71.7834 26.0625C70.0125 26.0625 68.6011 25.6562 67.549 24.8438C66.5073 24.0312 65.9865 22.9323 65.9865 21.5469C65.9865 19.2448 67.2625 17.7448 69.8146 17.0469C70.6792 16.8177 71.7938 16.7031 73.1584 16.7031C74.5334 16.7031 75.8563 16.8594 77.1271 17.1719V15.4531C77.1271 13.7344 76.4396 12.6823 75.0646 12.2969C74.575 12.151 73.9188 12.0781 73.0959 12.0781C71.3355 12.0781 70.3198 12.5469 70.049 13.4844C69.8823 13.9844 69.5855 14.3438 69.1584 14.5625C68.9709 14.6562 68.7573 14.7031 68.5177 14.7031C67.5282 14.7031 67.0334 14.1719 67.0334 13.1094C67.0334 12.2031 67.6271 11.401 68.8146 10.7031C70.0125 10.0052 71.5282 9.65625 73.3615 9.65625C76.4657 9.65625 78.4709 10.7552 79.3771 12.9531C79.6792 13.7031 79.8302 14.5885 79.8302 15.6094V19.6562C79.8302 21.0729 79.8875 22.026 80.0021 22.5156C80.1167 22.9948 80.3302 23.3333 80.6427 23.5312C81.1948 23.8854 81.4709 24.2969 81.4709 24.7656C81.4709 25.6302 80.924 26.0625 79.8302 26.0625C78.7469 26.0625 77.9657 25.375 77.4865 24ZM89.232 25.8281L86.107 25.9219C85.6383 25.9219 85.2685 25.8125 84.9976 25.5938C84.7268 25.3646 84.5914 25.0625 84.5914 24.6875C84.5914 24.3125 84.7476 24.0052 85.0601 23.7656C85.383 23.526 85.8101 23.4062 86.3414 23.4062H87.3883V4.15625H86.7789C85.8726 4.15625 85.2268 4.02083 84.8414 3.75C84.456 3.46875 84.2633 3.125 84.2633 2.71875C84.2633 1.92708 84.9872 1.53125 86.4351 1.53125L93.6226 1.75C95.1018 1.75 96.4664 1.63542 97.7164 1.40625C97.6643 1.23958 97.6383 1.0625 97.6383 0.875C97.6383 0.677083 97.7372 0.484375 97.9351 0.296875C98.133 0.0989583 98.4195 0 98.7945 0C99.732 0 100.789 1.60938 101.966 4.82812C102.185 5.43229 102.295 5.89062 102.295 6.20312C102.295 6.92188 101.972 7.28125 101.326 7.28125C100.753 7.28125 100.274 6.72396 99.8883 5.60938C99.6487 4.92188 99.2633 4.44271 98.732 4.17188C98.2112 3.89062 97.5445 3.75 96.732 3.75H96.3726C96.2372 3.75 96.0393 3.75521 95.7789 3.76562L94.8726 3.82812C94.6851 3.83854 94.3987 3.85938 94.0133 3.89062C93.6383 3.92188 93.2268 3.95312 92.7789 3.98438L90.2945 4.15625V12.0469C92.9508 12.0469 94.4455 12.0104 94.7789 11.9375C95.1122 11.8646 95.3622 11.7552 95.5289 11.6094C95.6955 11.4635 95.8101 11.1927 95.8726 10.7969C96.008 10.026 96.4664 9.64062 97.2476 9.64062C97.4664 9.64062 97.6747 9.71875 97.8726 9.875C98.081 10.0208 98.1851 10.2344 98.1851 10.5156C98.1851 10.7865 98.0914 11.1875 97.9039 11.7188C97.7164 12.2396 97.6226 12.75 97.6226 13.25C97.6226 13.7396 97.7164 14.2188 97.9039 14.6875L98.3101 15.7969C98.4143 16.0573 98.4664 16.349 98.4664 16.6719C98.4664 16.9844 98.3466 17.2396 98.107 17.4375C97.8674 17.625 97.581 17.7188 97.2476 17.7188C96.581 17.7188 96.1643 17.2812 95.9976 16.4062C95.831 15.5208 95.6487 14.9531 95.4508 14.7031C95.2528 14.4531 94.8987 14.3281 94.3883 14.3281H90.2945V23.4062H92.8101C93.5393 23.4062 94.0497 23.5365 94.3414 23.7969C94.6435 24.0469 94.7945 24.3021 94.7945 24.5625C94.7945 25.4688 94.2424 25.9219 93.1383 25.9219H92.7633C92.6174 25.9219 92.4664 25.9219 92.3101 25.9219L91.8258 25.8906C91.6695 25.8906 91.5133 25.8854 91.357 25.875C91.2008 25.875 90.8935 25.8698 90.4351 25.8594L89.8101 25.8281C89.6018 25.8281 89.4091 25.8281 89.232 25.8281ZM114.134 22.8906C113.103 25.0052 111.373 26.0625 108.946 26.0625C108.155 26.0625 107.42 25.9219 106.743 25.6406C104.858 24.849 103.915 23.1146 103.915 20.4375V13.4219C103.915 12.8177 103.78 12.5156 103.509 12.5156L102.353 12.7031C101.425 12.7031 100.962 12.276 100.962 11.4219C100.962 10.6615 101.462 10.2344 102.462 10.1406C103.056 10.0885 103.519 10.0156 103.853 9.92188L104.649 9.73438C104.847 9.68229 105.129 9.65625 105.493 9.65625C105.858 9.65625 106.139 9.79688 106.337 10.0781C106.535 10.3594 106.634 10.7188 106.634 11.1562V19.4219C106.634 21.5156 107.16 22.8073 108.212 23.2969C108.597 23.474 109.05 23.5625 109.571 23.5625C110.55 23.5625 111.462 23.0833 112.306 22.125C113.149 21.1667 113.743 19.9948 114.087 18.6094V13.4219C114.087 13.026 114.05 12.776 113.978 12.6719C113.905 12.5677 113.8 12.5156 113.665 12.5156L112.571 12.7031C111.644 12.7031 111.181 12.276 111.181 11.4219C111.181 10.6615 111.691 10.2344 112.712 10.1406C113.254 10.0885 113.696 10.0208 114.04 9.9375L114.821 9.73438C115.009 9.68229 115.285 9.65625 115.649 9.65625C116.024 9.65625 116.306 9.79688 116.493 10.0781C116.691 10.3594 116.79 10.7188 116.79 11.1562V19.6562C116.79 21.6146 117.03 22.8177 117.509 23.2656C117.655 23.401 117.847 23.5156 118.087 23.6094C118.504 23.776 118.712 24.1042 118.712 24.5938C118.712 25.5729 118.129 26.0625 116.962 26.0625C115.806 26.0625 114.983 25.4844 114.493 24.3281C114.316 23.9219 114.196 23.4427 114.134 22.8906ZM122.082 25.8281C121.082 25.8281 120.582 25.4427 120.582 24.6719C120.582 24.2969 120.739 24.0052 121.051 23.7969C121.364 23.5885 121.796 23.4844 122.348 23.4844H123.739V13.2969C123.739 12.6719 123.603 12.3594 123.332 12.3594C123.187 12.3594 122.994 12.3958 122.754 12.4688C122.515 12.5417 122.223 12.5781 121.879 12.5781C121.535 12.5781 121.233 12.4688 120.973 12.25C120.713 12.0312 120.582 11.7344 120.582 11.3594C120.582 10.5677 121.145 10.1146 122.27 10C122.864 9.94792 123.416 9.85938 123.926 9.73438C124.447 9.59896 124.905 9.53125 125.301 9.53125C126.062 9.53125 126.442 10.0312 126.442 11.0312V13.0781C126.89 12.0781 127.624 11.2604 128.645 10.625C129.666 9.97917 130.744 9.65625 131.879 9.65625C133.9 9.65625 135.332 10.1667 136.176 11.1875C137.02 12.2083 137.442 13.5833 137.442 15.3125V23.4844H138.489C139.801 23.4844 140.457 23.8958 140.457 24.7188C140.457 25.0104 140.332 25.2708 140.082 25.5C139.832 25.7188 139.405 25.8281 138.801 25.8281L136.051 25.7344L133.082 25.8281C132.082 25.8281 131.582 25.4427 131.582 24.6719C131.582 24.2969 131.739 24.0052 132.051 23.7969C132.364 23.5885 132.796 23.4844 133.348 23.4844H134.707V16.3281C134.707 14.1406 134.155 12.8281 133.051 12.3906C132.666 12.2344 132.202 12.1562 131.66 12.1562C130.546 12.1562 129.478 12.5833 128.457 13.4375C127.447 14.2917 126.775 15.375 126.442 16.6875V23.4844H127.489C128.801 23.4844 129.457 23.8958 129.457 24.7188C129.457 25.0104 129.332 25.2708 129.082 25.5C128.832 25.7188 128.405 25.8281 127.801 25.8281L125.051 25.7344L122.082 25.8281ZM153.875 13.2812C152.864 12.5104 151.62 12.125 150.14 12.125C148.672 12.125 147.427 12.6615 146.406 13.7344C145.396 14.8073 144.89 16.2135 144.89 17.9531C144.89 19.6823 145.354 21.0573 146.281 22.0781C147.208 23.0885 148.448 23.5938 150 23.5938C151.552 23.5938 152.844 22.9948 153.875 21.7969V13.2812ZM154.281 24.0938C153.104 25.4062 151.521 26.0625 149.531 26.0625C147.541 26.0625 145.817 25.3438 144.359 23.9062C142.901 22.4583 142.172 20.5208 142.172 18.0938C142.172 15.6562 142.969 13.6406 144.562 12.0469C146.156 10.4531 148.156 9.65625 150.562 9.65625C151.791 9.65625 152.896 9.92188 153.875 10.4531V4.6875C153.875 4.28125 153.838 4.02604 153.765 3.92188C153.703 3.81771 153.609 3.76562 153.484 3.76562L152.14 3.95312C151.724 3.95312 151.38 3.84896 151.109 3.64062C150.849 3.43229 150.719 3.14062 150.719 2.76562C150.719 1.97396 151.286 1.52083 152.422 1.40625C153.192 1.33333 153.765 1.23438 154.14 1.10938C154.526 0.984375 154.937 0.921875 155.375 0.921875C156.177 0.921875 156.578 1.42188 156.578 2.42188V19.6562C156.578 21.0729 156.635 22.026 156.75 22.5156C156.864 22.9948 157.078 23.3333 157.39 23.5312C157.932 23.8854 158.203 24.2865 158.203 24.7344C158.203 25.6198 157.666 26.0625 156.594 26.0625C155.531 26.0625 154.76 25.4062 154.281 24.0938Z" fill="#0350B5"/>
</svg>
