<svg width="48" height="48" viewBox="0 0 48 48" fill="none" xmlns="http://www.w3.org/2000/svg">
<path d="M1.5 4.434L4.5 8.218V17.152C4.42 20.528 8.334 23.552 11.998 26.656M10.462 14.716L14 18.34C14.2232 18.5692 14.4894 18.7521 14.7834 18.8784C15.0773 19.0047 15.3933 19.0718 15.7132 19.076C16.0331 19.0802 16.3507 19.0213 16.6478 18.9027C16.945 18.7842 17.2158 18.6082 17.445 18.385C17.6742 18.1618 17.8571 17.8956 17.9834 17.6016C18.1097 17.3077 18.1768 16.9917 18.181 16.6718C18.1852 16.3519 18.1263 16.0343 18.0077 15.7372C17.8892 15.44 17.7132 15.1692 17.49 14.94L11.988 9.326V6.4C11.6891 4.64693 11.0225 2.977 10.032 1.5" stroke="#0350B5" stroke-width="2" stroke-linecap="round" stroke-linejoin="round"/>
<path d="M12 16.2759V40.4999C12 41.2955 12.3161 42.0586 12.8787 42.6212C13.4413 43.1838 14.2044 43.4999 15 43.4999H28.5M46.5 43.5639L43.5 39.7799V30.8479C43.57 27.9299 40.658 25.2759 37.5 22.6079" stroke="#0350B5" stroke-width="2" stroke-linecap="round" stroke-linejoin="round"/>
<path d="M19.5 7.5H34.5C35.2956 7.5 36.0587 7.81607 36.6213 8.37868C37.1839 8.94129 37.5 9.70435 37.5 10.5V33.24L34 29.66C33.5491 29.1972 32.9329 28.9325 32.2868 28.924C31.6408 28.9156 31.0178 29.1641 30.555 29.615C30.0922 30.0659 29.8275 30.6821 29.819 31.3282C29.8106 31.9742 30.0591 32.5972 30.51 33.06L36.02 38.676V41.6C36.32 43.35 36.986 45.018 37.976 46.492" stroke="#0350B5" stroke-width="2" stroke-linecap="round" stroke-linejoin="round"/>
</svg>
